<?xml version="1.0" encoding="utf-8" ?>
<svg baseProfile="tiny" height="512" version="1.2" width="512" xmlns="http://www.w3.org/2000/svg" xmlns:ev="http://www.w3.org/2001/xml-events" xmlns:xlink="http://www.w3.org/1999/xlink"><defs /><path d="M 452.46,371.42 L 442.63,368.13 Q 437.69,366.57 432.75,365.01 Q 427.87,363.25 422.98,361.48 Q 417.98,360.15 412.98,358.82 Q 408.01,357.37 403.04,355.93 Q 398.09,354.42 393.14,352.92 Q 388.18,351.43 383.22,349.94 Q 378.20,348.70 373.17,347.45 Q 368.20,346.02 363.22,344.59 Q 358.14,343.57 353.05,342.55 Q 348.03,341.31 343.01,340.07 Q 337.96,338.90 332.92,337.73 Q 327.82,336.76 322.72,335.80 Q 317.66,334.68 312.60,333.56 Q 307.60,332.25 302.59,330.94 Q 297.46,330.09 292.33,329.24 Q 287.35,327.85 282.36,326.46 Q 277.30,325.36 272.24,324.26 Q 267.16,323.20 262.09,322.14 Q 257.10,320.77 252.11,319.39 Q 247.11,318.06 242.11,316.73 Q 237.06,315.57 232.02,314.41 Q 227.09,312.81 222.16,311.21 Q 217.16,309.89 212.15,308.57 Q 207.31,306.17 202.47,303.77 Q 199.59,308.13 196.70,312.49 Q 193.90,316.90 191.10,321.32 Q 188.04,325.57 184.98,329.83 Q 182.20,334.26 179.43,338.68 Q 176.84,343.22 174.26,347.76 Q 171.60,352.26 168.95,356.75 Q 167.23,361.76 165.50,366.78 Q 168.60,371.12 171.69,375.47 Q 174.90,379.72 178.11,383.96 Q 181.46,388.08 184.81,392.21 Q 188.10,396.38 191.39,400.56 Q 194.95,404.50 198.52,408.43 Q 202.80,411.64 207.09,414.85 Q 205.09,419.96 203.10,425.08 Q 201.34,430.25 199.58,435.43 Q 198.33,440.74 197.08,446.04 Q 195.75,451.33 194.42,456.61 Q 193.88,462.10 193.35,467.59 Q 192.37,472.97 191.39,478.34 Q 190.83,483.82 190.27,489.30 Q 189.11,494.63 187.96,499.97 Q 185.55,504.87 183.14,509.77 Q 179.33,505.88 175.53,501.98 Q 171.74,498.06 167.96,494.15 Q 163.93,490.51 159.91,486.87 Q 155.65,483.51 151.39,480.14 Q 146.98,476.96 142.56,473.77 Q 138.02,470.74 133.47,467.70 Q 129.52,464.07 125.56,460.44 Q 126.11,454.89 126.67,449.35 Q 125.57,443.91 124.46,438.48 Q 130.45,441.41 136.44,444.35 Q 143.10,445.33 149.76,446.32 Q 152.80,442.02 155.85,437.72 Q 158.95,433.46 162.05,429.19 Q 164.92,424.78 167.78,420.37 Q 170.84,416.08 173.89,411.79 Q 175.49,406.67 177.08,401.54 Q 177.39,396.21 177.70,390.87 Q 177.81,385.55 177.92,380.22 Q 177.84,374.91 177.75,369.59 Q 177.70,364.27 177.65,358.96 Q 177.39,353.65 177.12,348.34 Q 176.48,343.05 175.84,337.77 Q 174.78,332.57 173.72,327.37 Q 177.85,323.76 181.98,320.16 Q 186.17,316.61 190.36,313.06 Q 194.27,309.25 198.19,305.44 Q 201.77,301.31 205.36,297.18 Q 208.78,292.89 212.21,288.60 Q 215.43,284.12 218.65,279.63 Q 222.07,275.33 225.48,271.04 Q 229.14,266.98 232.80,262.91 Q 236.76,259.15 240.72,255.39 Q 245.18,252.09 249.65,248.80 Q 255.50,246.12 261.35,243.45 Q 265.79,238.72 270.23,234.00 Q 275.56,230.61 280.89,227.23 Q 283.94,223.21 286.99,219.20 Q 289.71,214.85 292.44,210.51 Q 297.04,213.98 301.65,217.46 Q 306.63,220.16 311.61,222.86 Q 316.94,224.84 322.28,226.82 Q 327.83,228.34 333.38,229.86 Q 338.78,231.70 344.18,233.54 Q 348.71,236.91 353.24,240.28 Q 353.98,235.24 354.71,230.19 Q 355.58,225.16 356.46,220.13 Q 356.69,214.93 356.92,209.72 Q 353.05,205.96 349.17,202.20 Q 345.12,198.66 341.06,195.12 Q 337.01,191.59 332.95,188.05 Q 327.99,185.56 323.02,183.06 Q 328.33,179.36 333.63,175.66 Q 337.08,170.16 340.52,164.66 Q 338.90,157.94 337.28,151.22 Q 334.28,145.12 331.29,139.01 Q 326.81,142.80 322.33,146.59 Q 318.62,150.98 314.91,155.37 Q 312.31,160.57 309.70,165.78 Q 303.06,168.03 296.43,170.28 Q 290.38,173.64 284.33,177.00 Q 281.92,172.21 279.52,167.42 Q 276.95,162.73 274.39,158.04 Q 271.60,153.50 268.80,148.96 Q 265.09,144.89 261.39,140.81 Q 266.61,142.15 271.82,143.49 Q 277.34,143.57 282.85,143.65 Q 284.66,138.47 286.47,133.29 Q 288.23,128.10 289.99,122.91 Q 291.55,117.66 293.10,112.42 Q 294.25,107.07 295.40,101.72 Q 295.92,96.07 296.44,90.43 Q 301.16,95.04 305.88,99.65 Q 312.13,102.03 318.39,104.40 Q 323.42,108.57 328.45,112.73 Q 334.86,112.06 341.28,111.38 Q 347.09,108.58 352.90,105.77 Q 350.91,110.97 348.92,116.17 Q 348.15,121.77 347.37,127.36 Q 352.27,130.99 357.17,134.62 Q 362.73,136.87 368.29,139.13 Q 373.99,140.96 379.69,142.79 Q 376.69,148.14 373.69,153.49 Q 372.61,159.43 371.53,165.38 Q 366.66,163.78 361.79,162.19 Q 357.06,160.18 352.33,158.17 Q 347.52,156.41 342.70,154.64 Q 337.86,152.96 333.02,151.28 Q 328.26,149.37 323.49,147.46 Q 318.63,145.86 313.76,144.25 Q 308.54,143.50 303.33,142.75 Q 302.57,148.30 301.82,153.84 Q 301.10,159.39 300.39,164.93 Q 300.52,170.50 300.64,176.07 Q 301.37,181.56 302.09,187.05 Q 296.33,186.66 290.58,186.27 Q 284.86,186.35 279.13,186.42 Q 273.57,187.92 268.01,189.42 Q 264.05,193.38 260.10,197.34 Q 256.59,201.62 253.08,205.90 Q 250.75,211.03 248.42,216.15 Q 248.41,209.01 248.40,201.87 Q 247.00,194.86 245.59,187.86 Q 241.31,183.49 237.03,179.12 Q 231.52,176.30 226.02,173.49 Q 232.21,174.29 238.39,175.10 Q 244.41,173.93 250.42,172.77 Q 256.51,171.58 262.60,170.39 Q 259.37,166.08 256.14,161.77 Q 252.85,157.51 249.56,153.25 Q 245.29,149.94 241.02,146.64 Q 240.75,140.05 240.47,133.46 Q 238.25,127.26 236.03,121.06 Q 241.97,121.75 247.90,122.44 Q 253.77,121.15 259.64,119.86 Q 265.26,118.47 270.88,117.09 Q 275.70,113.85 280.53,110.61 Q 286.58,113.98 292.64,117.35 Q 299.28,119.40 305.92,121.45 Q 302.07,116.79 298.22,112.13 Q 293.46,108.58 288.69,105.04 Q 283.16,102.43 277.62,99.82 Q 273.38,95.58 269.13,91.34 Q 264.23,92.48 259.33,93.62 Q 254.42,94.72 249.52,95.83 Q 244.49,93.75 239.47,91.68 Q 234.37,89.86 229.27,88.04 Q 224.11,86.44 218.94,84.85 Q 213.72,83.48 208.50,82.11 Q 203.19,81.03 197.89,79.96 Q 192.52,79.10 187.16,78.24 Q 181.86,76.94 176.56,75.63 Q 180.65,72.31 184.73,69.00 Q 188.59,65.46 192.45,61.91 Q 196.26,58.32 200.07,54.73 Q 204.04,51.30 208.01,47.88 Q 211.66,44.12 215.31,40.36 Q 219.09,36.75 222.88,33.14 Q 226.53,29.39 230.19,25.64 Q 233.65,21.70 237.12,17.77 Q 240.25,13.53 243.37,9.30 Q 248.45,9.35 253.54,9.40 Q 258.61,9.64 263.69,9.87 Q 268.77,10.14 273.84,10.40 Q 278.92,10.64 284.00,10.87 Q 289.07,11.25 294.14,11.64 Q 299.22,11.86 304.30,12.09 Q 309.38,12.27 314.46,12.45 Q 319.54,12.54 324.62,12.62 Q 329.69,13.03 334.76,13.44 Q 339.85,13.46 344.93,13.47 Q 350.01,13.75 355.08,14.03 Q 360.16,14.13 365.24,14.22 Q 370.32,14.49 375.40,14.75 Q 380.47,14.93 385.55,15.11 Q 390.63,15.17 395.71,15.23 Q 400.80,15.20 405.88,15.17 Q 410.96,15.24 416.04,15.30 Q 421.12,15.56 426.20,15.82 Q 431.28,15.91 436.36,16.00 Q 441.40,14.86 446.45,13.72 Q 443.04,17.86 439.64,22.01 Q 436.13,26.07 432.62,30.14 Q 429.19,34.26 425.76,38.38 Q 422.51,42.64 419.26,46.90 Q 416.20,51.29 413.13,55.69 Q 410.50,60.40 407.87,65.11 Q 405.12,69.74 402.38,74.36 Q 399.57,78.95 396.76,83.53 Q 393.89,88.06 391.02,92.60 Q 388.09,97.09 385.17,101.58 Q 382.01,105.91 378.86,110.24 Q 374.54,113.86 370.22,117.49 Q 372.25,122.28 374.29,127.07 Q 376.20,131.92 378.10,136.77 Q 379.75,141.74 381.40,146.70 Q 383.45,151.49 385.50,156.27 Q 387.54,161.07 389.57,165.86 Q 391.61,170.65 393.65,175.44 Q 396.71,179.75 399.76,184.06 Q 400.83,189.02 401.89,193.98 Q 402.80,198.97 403.71,203.96 Q 404.76,208.92 405.81,213.88 Q 406.61,218.89 407.41,223.91 Q 408.43,228.88 409.44,233.85 Q 410.35,238.84 411.27,243.82 Q 412.17,248.82 413.08,253.81 Q 414.06,258.78 415.05,263.76 Q 416.00,268.74 416.95,273.72 Q 417.76,278.73 418.56,283.75 Q 419.72,288.68 420.88,293.62 Q 421.74,298.62 422.61,303.62 Q 423.61,308.59 424.62,313.56 Q 425.71,318.52 426.80,323.47 Q 427.59,328.48 428.39,333.50 Q 429.58,338.43 430.77,343.36 Q 431.53,348.38 432.30,353.40 Q 433.54,358.32 434.79,363.25 Q 435.66,368.24 436.52,373.24 Q 437.52,378.22 438.52,383.19 Q 439.78,388.10 441.05,393.02 Q 442.13,397.98 443.22,402.93 Q 444.16,407.91 445.11,412.90 Q 446.33,417.82 447.55,422.75 Q 449.32,427.54 451.08,432.34 Q 451.12,439.44 451.16,446.54 Q 452.02,453.60 452.89,460.65 Q 453.83,454.87 454.76,449.08 Q 454.56,443.32 454.35,437.57 Q 453.41,431.83 452.47,426.09 Q 451.45,420.35 450.43,414.62 Q 449.87,408.87 449.31,403.12 Q 450.26,397.33 451.21,391.55" fill="none" stroke="black" stroke-linecap="round" stroke-linejoin="round" stroke-width="2.0" /></svg>