<?xml version="1.0" encoding="utf-8" ?>
<svg baseProfile="tiny" height="512" version="1.2" width="512" xmlns="http://www.w3.org/2000/svg" xmlns:ev="http://www.w3.org/2001/xml-events" xmlns:xlink="http://www.w3.org/1999/xlink"><defs /><path d="M 451.77,370.41 L 457.61,362.29 Q 460.54,358.23 463.46,354.17 Q 466.43,350.15 469.41,346.12 Q 472.36,342.08 475.31,338.05 Q 478.23,333.98 481.14,329.91 Q 484.06,325.85 486.97,321.78 Q 489.94,317.75 492.90,313.72 Q 495.83,309.66 498.75,305.61 Q 501.33,300.99 503.91,296.37 Q 506.41,291.71 508.91,287.05 Q 511.45,282.41 513.99,277.77 Q 516.49,273.11 518.99,268.45 Q 521.14,263.61 523.29,258.77 Q 524.34,253.56 525.38,248.35 Q 526.32,243.12 527.26,237.89 Q 527.99,232.61 528.72,227.32 Q 526.14,222.64 523.57,217.97 Q 520.84,213.36 518.10,208.76 Q 512.38,206.46 506.66,204.16 Q 500.75,202.38 494.84,200.59 Q 489.41,200.34 483.97,200.10 Q 478.53,199.93 473.10,199.76 Q 467.66,199.99 462.22,200.23 Q 455.72,200.77 449.23,201.32 Q 442.83,202.56 436.43,203.81 Q 429.95,204.48 423.48,205.15 Q 418.26,205.99 413.04,206.83 Q 407.81,207.65 402.59,208.47 Q 397.39,209.41 392.19,210.36 Q 387.03,211.54 381.87,212.72 Q 376.70,213.59 371.54,214.47 Q 366.38,215.39 361.22,216.31 Q 356.06,217.21 350.90,218.11 Q 345.79,219.31 340.69,220.50 Q 334.40,221.12 328.11,221.74 Q 321.92,223.05 315.72,224.35 Q 309.47,225.19 303.21,226.02 Q 298.12,226.11 293.04,226.20 Q 287.95,226.25 282.86,226.30 Q 277.76,226.53 272.67,226.77 Q 267.65,224.92 262.63,223.07 Q 257.53,221.50 252.44,219.93 Q 250.41,215.92 248.38,211.92 Q 246.70,207.75 245.01,203.59 Q 245.30,197.72 245.59,191.86 Q 245.42,185.99 245.26,180.12 Q 245.85,173.88 246.45,167.64 Q 246.45,161.37 246.45,155.09 Q 247.56,149.70 248.67,144.31 Q 249.44,138.85 250.20,133.40 Q 252.09,129.86 253.97,126.33 Q 256.36,123.12 258.76,119.91 Q 262.40,119.16 266.04,118.40 Q 269.75,118.31 273.45,118.21 Q 278.17,120.28 282.89,122.34 Q 287.67,124.27 292.46,126.20 Q 297.34,130.09 302.22,133.98 Q 307.47,137.35 312.72,140.72 Q 317.23,145.26 321.75,149.81 Q 326.65,153.94 331.54,158.07 Q 335.01,162.48 338.48,166.88 Q 342.31,170.99 346.14,175.10 Q 348.32,179.62 350.49,184.13 Q 352.69,188.64 354.89,193.15 Q 355.27,199.09 355.64,205.03 Q 356.57,210.91 357.51,216.80 Q 356.63,222.19 355.75,227.58 Q 355.28,233.00 354.82,238.42 Q 353.61,237.10 352.40,235.78 Q 350.93,234.76 349.45,233.74 Q 347.64,227.53 345.82,221.31 Q 343.47,215.28 341.13,209.25 Q 338.14,203.44 335.15,197.63 Q 331.65,192.11 328.14,186.59 Q 323.37,186.07 318.60,185.56 Q 313.84,184.87 309.09,184.18 Q 303.45,184.77 297.82,185.36 Q 292.24,186.39 286.67,187.42 Q 281.90,188.39 277.13,189.37 Q 272.35,190.21 267.57,191.06 Q 265.09,194.73 262.60,198.41 Q 259.84,201.88 257.07,205.36 Q 255.69,210.83 254.31,216.31 Q 253.43,221.89 252.56,227.47 Q 251.39,233.38 250.22,239.29 Q 249.73,245.29 249.24,251.30 Q 247.65,256.50 246.07,261.70 Q 244.80,266.97 243.53,272.25 Q 241.55,276.82 239.58,281.39 Q 237.59,285.95 235.60,290.52 Q 233.24,294.68 230.87,298.85 Q 228.46,302.99 226.04,307.12 Q 223.45,311.15 220.86,315.18 Q 218.11,319.09 215.36,323.01 Q 212.67,327.13 209.97,331.25 Q 207.20,335.31 204.42,339.37 Q 201.70,343.78 198.99,348.19 Q 196.42,352.69 193.85,357.19 Q 191.24,362.17 188.64,367.15 Q 186.43,372.32 184.22,377.49 Q 181.98,383.37 179.75,389.25 Q 178.04,395.31 176.34,401.37 Q 174.38,407.79 172.42,414.20 Q 170.98,420.75 169.54,427.30 Q 166.83,431.69 164.12,436.08 Q 161.52,440.57 158.92,445.05 Q 153.97,444.59 149.03,444.13 Q 144.07,443.71 139.12,443.28 Q 134.87,442.77 130.61,442.27 Q 126.43,441.36 122.26,440.46 Q 122.96,446.27 123.65,452.09 Q 124.89,457.83 126.12,463.56 Q 129.19,469.43 132.26,475.29 Q 135.74,480.93 139.22,486.57 Q 143.36,490.68 147.50,494.80 Q 151.93,498.62 156.36,502.43 Q 160.94,504.02 165.53,505.61 Q 170.04,507.36 174.56,509.12 Q 178.58,507.83 182.60,506.54 Q 186.75,505.73 190.90,504.91 Q 193.99,501.25 197.09,497.60 Q 200.25,494.00 203.42,490.40 Q 205.63,485.12 207.84,479.84 Q 209.56,474.38 211.27,468.91 Q 212.10,462.66 212.94,456.40 Q 213.20,450.11 213.46,443.81 Q 212.72,437.42 211.98,431.03 Q 210.66,424.73 209.33,418.44 Q 206.86,412.65 204.39,406.87 Q 201.36,401.35 198.34,395.84 Q 195.13,390.68 191.92,385.52 Q 188.20,380.71 184.49,375.90 Q 181.79,371.22 179.10,366.53 Q 176.14,362.01 173.17,357.49 Q 172.16,353.00 171.16,348.52 Q 170.45,343.96 169.75,339.40 Q 172.31,334.75 174.86,330.10 Q 177.27,325.38 179.68,320.66 Q 184.28,317.15 188.88,313.64 Q 193.18,309.82 197.49,306.00 Q 199.13,306.62 200.77,307.24 Q 202.54,307.47 204.31,307.71 Q 202.16,312.19 200.01,316.66 Q 197.86,321.13 195.71,325.61 Q 191.63,331.52 187.55,337.43 Q 183.68,343.48 179.81,349.53 Q 175.83,354.25 171.86,358.97 Q 168.31,364.01 164.75,369.06 Q 162.71,371.00 160.67,372.94 Q 158.50,374.75 156.34,376.56 Q 155.40,374.62 154.45,372.69 Q 155.05,369.29 155.65,365.89 Q 156.76,362.62 157.87,359.35 Q 159.97,354.21 162.08,349.08 Q 163.79,343.81 165.51,338.54 Q 168.29,332.00 171.07,325.46 Q 173.50,318.78 175.93,312.10 Q 178.15,307.17 180.37,302.24 Q 182.46,297.25 184.55,292.27 Q 186.35,287.17 188.15,282.07 Q 190.50,276.87 192.85,271.68 Q 195.01,266.41 197.18,261.14 Q 198.96,255.71 200.74,250.29 Q 202.95,245.12 205.16,239.95 Q 207.25,234.74 209.35,229.53 Q 211.07,224.17 212.79,218.82 Q 214.48,213.93 216.17,209.05 Q 217.91,204.19 219.65,199.32 Q 221.19,194.39 222.74,189.46 Q 224.74,183.22 226.73,176.99 Q 228.23,170.62 229.72,164.24 Q 232.02,159.83 234.33,155.42 Q 236.58,150.97 238.84,146.52 Q 243.75,145.09 248.67,143.66 Q 253.56,142.22 258.45,140.77 Q 263.58,141.89 268.71,143.00 Q 273.87,143.94 279.03,144.88 Q 284.16,144.58 289.28,144.27 Q 294.39,143.88 299.51,143.49 Q 304.77,142.16 310.02,140.82 Q 315.21,139.23 320.39,137.64 Q 325.31,139.47 330.22,141.30 Q 335.21,142.97 340.19,144.64 Q 344.43,149.13 348.67,153.62 Q 353.29,157.75 357.91,161.88 Q 361.82,161.69 365.73,161.50 Q 369.66,161.92 373.58,162.34 Q 375.10,157.29 376.63,152.23 Q 378.02,147.14 379.42,142.04 Q 375.16,139.75 370.90,137.45 Q 366.71,135.03 362.52,132.60 Q 357.50,129.40 352.48,126.19 Q 347.18,123.46 341.88,120.74 Q 337.76,118.64 333.65,116.54 Q 329.67,114.22 325.69,111.91 Q 320.95,114.18 316.20,116.46 Q 311.54,118.90 306.88,121.34 Q 304.59,117.45 302.29,113.55 Q 300.27,109.50 298.26,105.46 Q 297.23,98.37 296.21,91.28 Q 294.90,84.25 293.59,77.21 Q 292.18,70.73 290.76,64.25 Q 288.86,57.90 286.95,51.55 Q 284.84,46.19 282.73,40.83 Q 280.11,35.71 277.49,30.58 Q 274.29,26.89 271.09,23.20 Q 267.95,19.47 264.81,15.74 Q 260.59,14.11 256.38,12.48 Q 252.30,10.50 248.23,8.52 Q 243.06,8.90 237.89,9.28 Q 232.72,9.81 227.56,10.34 Q 222.03,12.62 216.50,14.89 Q 211.19,17.62 205.87,20.35 Q 201.07,24.19 196.27,28.03 Q 191.87,32.32 187.47,36.61 Q 184.59,41.70 181.71,46.78 Q 179.29,52.10 176.88,57.42 Q 177.00,63.32 177.11,69.22 Q 177.74,75.09 178.37,80.96 Q 181.84,86.81 185.31,92.66 Q 189.08,98.33 192.86,104.01 Q 197.78,108.25 202.70,112.49 Q 207.98,116.26 213.26,120.03 Q 217.78,120.48 222.30,120.93 Q 226.79,121.74 231.28,122.55 Q 233.50,118.53 235.72,114.51 Q 238.28,110.71 240.84,106.91 Q 244.63,103.06 248.42,99.22 Q 251.96,95.17 255.50,91.12 Q 260.18,92.02 264.86,92.92 Q 269.50,94.05 274.15,95.18 Q 275.82,100.97 277.49,106.75 Q 279.73,112.34 281.97,117.93 Q 283.32,122.77 284.68,127.61 Q 286.09,132.44 287.50,137.27 Q 288.90,142.10 290.30,146.93 Q 290.85,152.86 291.40,158.80 Q 292.46,164.68 293.51,170.55 Q 291.08,172.39 288.64,174.23 Q 286.02,175.85 283.40,177.47 Q 278.49,175.39 273.59,173.31 Q 268.57,171.51 263.55,169.72 Q 264.57,173.01 265.59,176.31 Q 266.04,179.71 266.49,183.12 Q 271.03,188.71 275.57,194.31 Q 280.24,199.80 284.92,205.30 Q 288.59,205.86 292.26,206.43 Q 295.82,207.53 299.38,208.64 Q 300.83,203.51 302.28,198.38 Q 303.49,193.19 304.70,188.00 Q 305.46,183.00 306.21,177.99 Q 306.96,172.99 307.71,167.98 Q 308.42,162.97 309.14,157.96 Q 311.59,151.22 314.04,144.47 Q 316.25,137.65 318.45,130.82 Q 321.99,126.25 325.54,121.68 Q 328.73,116.84 331.93,112.01 Q 335.95,110.36 339.97,108.71 Q 344.14,107.54 348.32,106.37 Q 352.79,108.67 357.26,110.97 Q 361.70,113.33 366.15,115.68 Q 370.61,116.53 375.08,117.37 Q 379.49,118.51 383.90,119.65 Q 388.03,116.95 392.16,114.25 Q 396.34,111.64 400.53,109.04 Q 404.49,104.12 408.46,99.21 Q 411.98,93.97 415.50,88.73 Q 418.86,82.57 422.21,76.40 Q 425.23,70.06 428.24,63.71 Q 430.91,57.60 433.57,51.49 Q 435.72,45.18 437.86,38.87 Q 439.46,34.00 441.06,29.12 Q 442.54,24.21 444.01,19.30 Q 444.58,16.94 445.16,14.57 Q 445.63,12.19 446.10,9.80 Q 445.16,10.77 444.22,11.73 Q 443.18,14.70 442.15,17.66 Q 440.70,20.45 439.25,23.24 Q 437.46,28.02 435.67,32.80 Q 433.90,37.59 432.13,42.38 Q 429.82,48.51 427.50,54.63 Q 425.72,60.94 423.95,67.24 Q 421.82,74.39 419.70,81.53 Q 417.60,88.68 415.49,95.84 Q 414.12,100.88 412.74,105.92 Q 411.33,110.95 409.91,115.98 Q 408.81,121.09 407.71,126.20 Q 406.63,131.23 405.56,136.25 Q 404.44,141.27 403.33,146.28 Q 402.45,151.34 401.58,156.41 Q 400.46,163.40 399.34,170.39 Q 398.60,177.43 397.86,184.47 Q 397.48,190.58 397.11,196.69 Q 397.31,202.81 397.50,208.93 Q 398.00,214.25 398.49,219.56 Q 399.30,224.84 400.11,230.11 Q 401.37,234.79 402.62,239.48 Q 403.74,244.19 404.86,248.91 Q 406.62,253.17 408.38,257.42 Q 409.85,261.78 411.33,266.15 Q 413.40,270.19 415.47,274.23 Q 417.20,278.44 418.92,282.64 Q 421.09,286.73 423.26,290.81 Q 425.12,295.04 426.99,299.27 Q 429.06,303.63 431.14,307.99 Q 433.06,312.42 434.98,316.84 Q 436.75,321.71 438.53,326.57 Q 440.40,331.40 442.27,336.23 Q 443.52,341.81 444.76,347.39 Q 446.48,352.84 448.20,358.30 Q 448.92,364.73 449.64,371.16 Q 450.91,377.51 452.17,383.86 Q 452.49,391.18 452.81,398.51 Q 453.29,405.82 453.76,413.13 Q 453.47,420.06 453.17,426.98 Q 453.37,433.91 453.58,440.84 Q 453.48,445.35 453.37,449.86 Q 452.95,454.35 452.54,458.84 Q 452.20,458.92 451.87,459.00 Q 452.37,452.55 452.87,446.10 Q 452.81,439.63 452.76,433.17" fill="none" stroke="black" stroke-linecap="round" stroke-linejoin="round" stroke-width="2.0" /></svg>