<?xml version="1.0" encoding="utf-8" ?>
<svg baseProfile="tiny" height="512" version="1.2" width="512" xmlns="http://www.w3.org/2000/svg" xmlns:ev="http://www.w3.org/2001/xml-events" xmlns:xlink="http://www.w3.org/1999/xlink"><defs /><path d="M 451.67,370.81 L 451.49,385.63 Q 451.41,393.04 451.32,400.46 Q 451.30,407.87 451.28,415.29 Q 451.26,422.70 451.24,430.12 Q 451.46,437.53 451.68,444.95 Q 451.90,452.37 452.12,459.79 Q 449.80,466.95 447.48,474.11 Q 445.16,481.28 442.84,488.44 Q 437.64,495.01 432.45,501.58 Q 427.25,508.16 422.05,514.73 Q 414.68,520.37 407.30,526.00 Q 399.92,531.64 392.54,537.28 Q 383.67,541.65 374.81,546.02 Q 365.94,550.39 357.07,554.76 Q 350.63,556.59 344.19,558.43 Q 337.75,560.27 331.31,562.11 Q 324.87,563.95 318.43,565.78 Q 308.68,566.59 298.92,567.40 Q 289.16,568.20 279.40,569.01 Q 270.24,567.53 261.08,566.04 Q 251.91,564.56 242.75,563.08 Q 234.88,558.97 227.01,554.85 Q 219.14,550.74 211.26,546.63 Q 205.38,539.55 199.49,532.47 Q 193.60,525.39 187.72,518.30 Q 185.40,511.74 183.08,505.17 Q 180.76,498.61 178.44,492.04 Q 176.12,485.47 173.80,478.91 Q 170.82,471.12 167.84,463.33 Q 164.86,455.53 161.88,447.74 Q 156.41,448.93 150.94,450.12 Q 145.46,451.31 139.99,452.50 Q 130.77,453.29 121.56,454.08 Q 125.64,446.86 129.72,439.64 Q 133.79,432.42 137.87,425.20 Q 145.60,422.22 153.32,419.24 Q 161.05,416.26 168.77,413.28 Q 170.51,407.35 172.24,401.43 Q 173.97,395.50 175.71,389.57 Q 173.33,383.82 170.95,378.06 Q 168.57,372.31 166.19,366.55 Q 171.01,371.71 175.82,376.86 Q 180.63,382.01 185.44,387.17 Q 191.19,393.98 196.93,400.80 Q 202.67,407.62 208.42,414.43 Q 207.84,411.82 207.26,409.20 Q 203.01,401.12 198.76,393.04 Q 194.51,384.96 190.25,376.88 Q 187.63,369.69 185.00,362.51 Q 182.38,355.32 179.75,348.14 Q 177.12,340.96 174.50,333.77 Q 174.55,323.91 174.61,314.06 Q 174.66,304.20 174.71,294.34 Q 178.74,286.18 182.77,278.02 Q 186.80,269.86 190.82,261.69 Q 197.40,254.92 203.98,248.14 Q 210.55,241.37 217.13,234.60 Q 224.83,228.90 232.53,223.20 Q 240.23,217.51 247.92,211.81 Q 255.32,206.88 262.71,201.96 Q 270.10,197.03 277.49,192.10 Q 283.14,187.63 288.80,183.17 Q 294.46,178.70 300.11,174.23 Q 305.10,165.60 310.08,156.97 Q 305.91,148.01 301.74,139.05 Q 296.75,133.35 291.76,127.64 Q 286.76,121.94 281.77,116.23 Q 278.52,109.61 275.26,102.99 Q 272.01,96.37 268.75,89.74 Q 263.73,93.45 258.71,97.16 Q 253.69,100.86 248.67,104.57 Q 253.62,111.12 258.56,117.68 Q 263.50,124.23 268.45,130.79 Q 273.40,136.02 278.36,141.24 Q 283.31,146.47 288.27,151.70 Q 291.42,158.60 294.58,165.51 Q 297.73,172.42 300.88,179.32 Q 299.54,186.43 298.20,193.53 Q 296.85,200.64 295.51,207.74 Q 291.77,213.07 288.03,218.40 Q 284.29,223.74 280.55,229.07 Q 286.06,227.90 291.57,226.73 Q 297.08,225.56 302.59,224.39 Q 309.99,221.08 317.39,217.77 Q 324.79,214.46 332.19,211.16 Q 339.59,207.85 346.99,204.54 Q 353.79,201.39 360.60,198.25 Q 367.40,195.10 374.21,191.95 Q 381.02,188.81 387.82,185.66 Q 393.50,184.79 399.18,183.92 Q 392.20,188.93 385.22,193.94 Q 378.24,198.96 371.26,203.97 Q 364.69,204.47 358.13,204.96 Q 361.67,196.96 365.21,188.95 Q 368.75,180.95 372.29,172.94 Q 366.57,166.96 360.86,160.98 Q 355.14,155.00 349.42,149.02 Q 345.08,146.19 340.74,143.35 Q 336.39,140.52 332.05,137.69 Q 337.74,131.90 343.44,126.12 Q 349.13,120.33 354.83,114.55 Q 349.97,113.17 345.12,111.79 Q 340.26,110.42 335.40,109.04 Q 328.20,111.81 321.00,114.59 Q 313.79,117.36 306.59,120.14 Q 304.18,113.04 301.77,105.95 Q 299.37,98.85 296.96,91.75 Q 290.81,85.50 284.67,79.25 Q 278.52,73.00 272.38,66.75 Q 262.80,64.54 253.23,62.32 Q 243.65,60.10 234.08,57.88 Q 224.92,58.84 215.77,59.79 Q 206.61,60.75 197.46,61.70 Q 192.57,64.96 187.69,68.22 Q 182.80,71.48 177.92,74.74 Q 180.17,79.39 182.43,84.04 Q 184.68,88.69 186.94,93.33 Q 194.17,98.16 201.41,102.98 Q 208.65,107.80 215.89,112.62 Q 224.24,116.46 232.60,120.30 Q 240.95,124.14 249.31,127.98 Q 252.14,133.99 254.97,139.99 Q 257.79,146.00 260.62,152.01 Q 264.51,157.48 268.40,162.96 Q 272.28,168.44 276.17,173.92 Q 272.96,181.07 269.75,188.22 Q 264.47,193.98 259.19,199.74 Q 253.91,205.50 248.64,211.26 Q 248.98,218.38 249.32,225.50 Q 249.66,232.62 250.01,239.74 Q 247.16,247.74 244.31,255.75 Q 241.46,263.75 238.61,271.75 Q 232.36,278.16 226.11,284.56 Q 219.87,290.97 213.62,297.38 Q 207.22,300.55 200.82,303.73 Q 203.89,299.14 206.97,294.55 Q 210.04,289.96 213.11,285.37 Q 216.99,279.83 220.86,274.29 Q 224.74,268.75 228.62,263.21 Q 232.49,257.68 236.37,252.14 Q 239.17,246.08 241.98,240.02 Q 244.78,233.96 247.59,227.90 Q 250.39,221.84 253.19,215.78 Q 251.43,208.85 249.67,201.91 Q 247.91,194.97 246.16,188.04 Q 241.09,183.66 236.03,179.27 Q 230.96,174.89 225.90,170.51 Q 230.49,163.73 235.08,156.94 Q 239.66,150.16 244.25,143.38 Q 246.53,135.70 248.81,128.01 Q 251.09,120.33 253.37,112.65 Q 252.53,104.81 251.70,96.97 Q 250.86,89.13 250.03,81.29 Q 248.21,73.66 246.39,66.03 Q 244.57,58.40 242.75,50.77 Q 242.08,43.71 241.40,36.66 Q 240.73,29.61 240.06,22.56 Q 242.60,16.45 245.14,10.34 Q 247.68,4.24 250.23,-1.87 Q 256.47,-6.69 262.71,-11.51 Q 268.95,-16.34 275.19,-21.16 Q 283.89,-24.39 292.60,-27.62 Q 301.30,-30.85 310.00,-34.08 Q 319.84,-35.41 329.68,-36.74 Q 339.53,-38.06 349.37,-39.39 Q 359.02,-38.52 368.68,-37.64 Q 378.34,-36.76 387.99,-35.88 Q 396.14,-32.49 404.29,-29.10 Q 412.44,-25.70 420.59,-22.31 Q 425.91,-16.10 431.24,-9.88 Q 436.56,-3.67 441.88,2.55 Q 443.17,11.76 444.47,20.97 Q 445.76,30.19 447.06,39.40 Q 445.51,46.58 443.96,53.76 Q 442.41,60.94 440.86,68.11 Q 439.31,75.29 437.76,82.47 Q 434.80,88.98 431.84,95.50 Q 428.87,102.01 425.91,108.52 Q 422.94,115.03 419.98,121.55 Q 414.93,127.74 409.88,133.94 Q 404.83,140.14 399.78,146.34 Q 391.50,146.45 383.22,146.56 Q 380.46,140.00 377.70,133.44 Q 374.94,126.88 372.19,120.32 Q 365.58,119.26 358.97,118.20 Q 352.36,117.14 345.75,116.08 Q 338.40,122.15 331.05,128.22 Q 323.70,134.29 316.35,140.36 Q 315.38,149.03 314.41,157.69 Q 313.44,166.35 312.47,175.01 Q 317.52,175.58 322.56,176.14 Q 327.61,176.71 332.65,177.28 Q 337.05,168.43 341.44,159.58 Q 345.84,150.72 350.23,141.87 Q 354.74,140.21 359.25,138.55 Q 358.88,147.00 358.50,155.46 Q 358.13,163.92 357.75,172.38 Q 357.37,180.84 357.00,189.30 Q 356.62,197.76 356.25,206.21 Q 355.87,214.67 355.49,223.13 Q 355.12,231.59 354.74,240.05" fill="none" stroke="black" stroke-linecap="round" stroke-linejoin="round" stroke-width="2.0" /></svg>